<?xml version="1.0" encoding="UTF-8" standalone="no"?>
<!-- Created with Inkscape (http://www.inkscape.org/) -->

<svg
   xmlns:dc="http://purl.org/dc/elements/1.1/"
   xmlns:cc="http://creativecommons.org/ns#"
   xmlns:rdf="http://www.w3.org/1999/02/22-rdf-syntax-ns#"
   xmlns:svg="http://www.w3.org/2000/svg"
   xmlns="http://www.w3.org/2000/svg"
   xmlns:sodipodi="http://sodipodi.sourceforge.net/DTD/sodipodi-0.dtd"
   xmlns:inkscape="http://www.inkscape.org/namespaces/inkscape"
   width="210mm"
   height="297mm"
   viewBox="0 0 210 297"
   version="1.1"
   id="svg8"
   inkscape:version="0.92.5 (2060ec1f9f, 2020-04-08)"
   sodipodi:docname="add-to-card.svg">
  <defs
     id="defs2" />
  <sodipodi:namedview
     id="base"
     pagecolor="#ffffff"
     bordercolor="#666666"
     borderopacity="1.0"
     inkscape:pageopacity="0.0"
     inkscape:pageshadow="2"
     inkscape:zoom="0.35"
     inkscape:cx="530.82455"
     inkscape:cy="682.83739"
     inkscape:document-units="mm"
     inkscape:current-layer="layer1"
     showgrid="false"
     inkscape:window-width="1280"
     inkscape:window-height="961"
     inkscape:window-x="-8"
     inkscape:window-y="-8"
     inkscape:window-maximized="1" />
  <metadata
     id="metadata5">
    <rdf:RDF>
      <cc:Work
         rdf:about="">
        <dc:format>image/svg+xml</dc:format>
        <dc:type
           rdf:resource="http://purl.org/dc/dcmitype/StillImage" />
        <dc:title></dc:title>
      </cc:Work>
    </rdf:RDF>
  </metadata>
  <g
     inkscape:label="Layer 1"
     inkscape:groupmode="layer"
     id="layer1">
    <ellipse
       style="opacity:1;fill:#0000ff;fill-opacity:1;stroke:#ff1a12;stroke-width:4.92758942;stroke-linecap:square;stroke-miterlimit:4;stroke-dasharray:none;stroke-dashoffset:0;stroke-opacity:0.42328042"
       id="path815"
       cx="112.63691"
       cy="143.47289"
       rx="53.781326"
       ry="52.79987" />
    <path
       style="opacity:1;fill:#ff2a2a;fill-opacity:1;stroke:#ff1a12;stroke-width:3.75294518;stroke-linecap:square;stroke-miterlimit:4;stroke-dasharray:none;stroke-dashoffset:0;stroke-opacity:0.42328042"
       d="m 110.07527,109.46166 c -0.004,0 -0.007,0.004 -0.007,0.008 v 30.38931 H 79.483339 c -0.0042,0 -0.0078,0.003 -0.0078,0.007 v 5.33043 c 0,0.004 0.0035,0.008 0.0078,0.008 h 30.584691 v 30.38885 c 0,0.004 0.003,0.008 0.007,0.008 h 5.33043 c 0.004,0 0.008,-0.004 0.008,-0.008 v -30.38907 h 30.19352 c 0.004,0 0.008,-0.004 0.008,-0.008 v -5.33043 c 0,-0.004 -0.004,-0.007 -0.008,-0.007 h -30.19354 v -30.38914 c 0,-0.004 -0.003,-0.008 -0.008,-0.008 z"
       id="rect817"
       inkscape:connector-curvature="0" />
  </g>
</svg>
